<svg xmlns="http://www.w3.org/2000/svg" width="17" height="17" viewBox="0 0 17 17">
  <g id="Group_16285" data-name="Group 16285" transform="translate(-16 -508)">
    <rect id="Rectangle_3054" data-name="Rectangle 3054" width="17" height="17" transform="translate(16 508)" fill="rgba(255,255,255,0)"/>
    <path id="Icon_ionic-ios-globe" data-name="Icon ionic-ios-globe" d="M9.278,3.375h-.02a5.9,5.9,0,0,0,0,11.806h.02a5.9,5.9,0,1,0,0-11.806Zm5.114,5.506h-2.2a11.176,11.176,0,0,0-.278-2.162,8.645,8.645,0,0,0,1.41-.6A5.084,5.084,0,0,1,14.392,8.881Zm-5.511,0H7.127a10.087,10.087,0,0,1,.25-1.961,8.634,8.634,0,0,0,1.5.2Zm0,.795v1.757a8.671,8.671,0,0,0-1.5.2,10.086,10.086,0,0,1-.25-1.958Zm.795,0h1.74a10.028,10.028,0,0,1-.25,1.955,8.471,8.471,0,0,0-1.49-.2Zm0-.795V7.121a8.671,8.671,0,0,0,1.49-.2,10.058,10.058,0,0,1,.25,1.958Zm3.1-3.346a7.884,7.884,0,0,1-1.078.44,5.86,5.86,0,0,0-.752-1.547A5.135,5.135,0,0,1,12.78,5.535Zm-1.828.644a7.987,7.987,0,0,1-1.277.17V4.266A3.439,3.439,0,0,1,10.952,6.179ZM8.881,4.255V6.346a7.849,7.849,0,0,1-1.291-.173A3.437,3.437,0,0,1,8.881,4.255Zm-1.294.182A5.906,5.906,0,0,0,6.84,5.972a8.061,8.061,0,0,1-1.064-.437A5.059,5.059,0,0,1,7.586,4.436ZM5.234,6.125a8.474,8.474,0,0,0,1.4.59,10.725,10.725,0,0,0-.278,2.162H4.167A5.058,5.058,0,0,1,5.234,6.125Zm-1.07,3.55H6.349a11.147,11.147,0,0,0,.278,2.162,8.991,8.991,0,0,0-1.4.59A5.085,5.085,0,0,1,4.164,9.675Zm1.609,3.346a7.942,7.942,0,0,1,1.067-.437,5.927,5.927,0,0,0,.746,1.538A5.184,5.184,0,0,1,5.773,13.021Zm1.816-.641a7.89,7.89,0,0,1,1.291-.173V14.3A3.432,3.432,0,0,1,7.589,12.38Zm2.086,1.91V12.2a7.987,7.987,0,0,1,1.277.17A3.437,3.437,0,0,1,9.675,14.29Zm1.277-.162a5.86,5.86,0,0,0,.752-1.547,7.754,7.754,0,0,1,1.078.443A5.194,5.194,0,0,1,10.952,14.128Zm2.37-1.7a8.645,8.645,0,0,0-1.41-.6,11.118,11.118,0,0,0,.278-2.16h2.2A5.062,5.062,0,0,1,13.322,12.431Z" transform="translate(15.625 507.625)" fill="#c48d35"/>
  </g>
</svg>
