<svg xmlns="http://www.w3.org/2000/svg" width="64" height="55" viewBox="0 0 64 55">
  <g id="Group_14480" data-name="Group 14480" transform="translate(-649 -294)">
    <g id="Polygon_1" data-name="Polygon 1" transform="translate(649 294)" fill="#fff">
      <path d="M 55.22504806518555 53.00000381469727 L 8.774948120117188 53.00000381469727 C 7.319377899169922 53.00000381469727 6.020158290863037 52.24497222900391 5.299538135528564 50.98030471801758 C 4.578927993774414 49.71562194824219 4.591728210449219 48.2130126953125 5.333777904510498 46.96079254150391 L 28.55882835388184 7.768513202667236 C 29.28640747070312 6.540723323822021 30.57281875610352 5.807723045349121 31.99999809265137 5.807723045349121 C 33.42716979980469 5.807723045349121 34.71357727050781 6.540723323822021 35.44115829467773 7.768513202667236 L 58.66621780395508 46.96079254150391 C 59.40826797485352 48.21300506591797 59.42106628417969 49.71562194824219 58.70045852661133 50.98029327392578 C 57.97983932495117 52.24496459960938 56.68061828613281 53.00000381469727 55.22504806518555 53.00000381469727 Z" stroke="none"/>
      <path d="M 31.9999885559082 6.807712554931641 C 30.91363906860352 6.807712554931641 29.97294998168945 7.343723297119141 29.41911697387695 8.278305053710938 L 6.194068908691406 47.4705810546875 C 5.637527465820312 48.40975189208984 5.6279296875 49.53672409057617 6.168399810791016 50.48523330688477 C 6.708858489990234 51.43373489379883 7.683269500732422 52.00000381469727 8.774936676025391 52.00000381469727 L 55.22503662109375 52.00000381469727 C 56.31672668457031 52.00000381469727 57.2911376953125 51.43372344970703 57.83160781860352 50.48521423339844 C 58.37206649780273 49.53671264648438 58.36246871948242 48.40975189208984 57.80592727661133 47.4705810546875 L 34.58086776733398 8.278305053710938 C 34.02703857421875 7.343723297119141 33.08634948730469 6.807712554931641 31.9999885559082 6.807712554931641 M 31.99999237060547 4.807716369628906 C 33.66657638549805 4.807716369628906 35.33316040039062 5.624713897705078 36.30144882202148 7.258705139160156 L 59.52650833129883 46.45098114013672 C 61.50162887573242 49.78400421142578 59.09932708740234 53.99999237060547 55.22504806518555 54.00000381469727 L 8.774936676025391 54.00000381469727 C 4.900669097900391 54.00000381469727 2.498367309570312 49.78400421142578 4.473487854003906 46.45098114013672 L 27.69853973388672 7.258705139160156 C 28.66682815551758 5.624713897705078 30.33341217041016 4.807716369628906 31.99999237060547 4.807716369628906 Z" stroke="none" fill="#000"/>
    </g>
    <text id="_" data-name="!" transform="translate(681 339)" fill="#000" stroke="rgba(0,0,0,0)" stroke-width="2" font-size="30" font-family="Consolas"><tspan x="-8" y="0">!</tspan></text>
  </g>
</svg>
