<svg xmlns="http://www.w3.org/2000/svg" width="18.004" height="16" viewBox="0 0 18.004 16">
  <path id="arrow_back_FILL0_wght600_GRAD0_opsz48" d="M14.783,24.165,8,17.2a.8.8,0,0,1-.239-.335,1.223,1.223,0,0,1,0-.774A.8.8,0,0,1,8,15.759l6.806-6.988a.925.925,0,0,1,1.381.026,1.015,1.015,0,0,1,0,1.444l-5.073,5.209H24.7a.959.959,0,0,1,.716.3,1.079,1.079,0,0,1,0,1.47.959.959,0,0,1-.716.3H11.116l5.1,5.234a.943.943,0,0,1,.289.709,1.037,1.037,0,0,1-.314.709.954.954,0,0,1-1.406,0Z" transform="translate(-7.7 -8.475)"/>
</svg>
